<svg width="178" height="228" viewBox="0 0 178 228" fill="none" xmlns="http://www.w3.org/2000/svg">
<path d="M60.5039 170.17C73.2953 167.97 79.781 157.957 81.933 148.746C83.9 140.327 81.602 137.17 76.8813 137.17C73.3408 137.17 71.3114 139.287 71.3114 142.686C71.3114 149.95 82.7198 149.951 88.2273 149.951M116.004 170.17C103.659 168.047 97.1869 158.646 94.8159 149.712M94.8159 149.712C94.7302 149.39 94.6499 149.067 94.5748 148.746C92.6078 140.327 94.9058 137.17 99.6265 137.17C103.167 137.17 105.196 139.287 105.196 142.686C105.196 147.625 99.923 149.206 94.8159 149.712ZM94.8159 149.712C92.4113 149.951 90.0436 149.951 88.2805 149.951" stroke="#7D93A4" stroke-width="2.25" stroke-linecap="round"/>
<path d="M50.5008 170.17C44.7521 163.92 33.1045 153.17 34.7517 128.671C36.7519 98.9207 60.7513 76.1703 94.7513 78.6706M126.502 169.67C131.502 164.67 140.403 156.32 142.003 132.92C143.969 104.17 118.752 84.1702 104.252 80.6702" stroke="#7D93A4" stroke-width="2.75" stroke-linecap="round"/>
<rect x="72.0039" y="116.67" width="9" height="15" rx="3.5" fill="#C2D1DB"/>
<rect x="95.5039" y="116.67" width="9" height="15" rx="3.5" fill="#C2D1DB"/>
<circle cx="123.004" cy="108.67" r="5" fill="#F7E789"/>
<path d="M87.7539 223.17C73.8323 223.17 70.1199 212.17 70.0039 206.67L78.2539 208.17H87.4059H96.7539L105.504 206.67C105.386 212.17 101.6 223.17 87.4059 223.17" stroke="#7D93A4" stroke-width="2.25"/>
<path d="M88.2031 180.67C88.2031 180.67 78.2926 180.354 71.9554 179.918C67.3604 179.602 62.7271 177.75 59.9774 176.75C58.6974 176.284 56.9774 175.499 55.2274 175C53.4774 174.5 51.6239 174.496 50.4805 175.496C47.9017 177.893 48.3883 181.664 48.954 183.25C49.4318 184.683 50.5175 185.346 51.2806 186.25M88.4806 208.247C85.064 208.163 77.1306 207.847 72.7306 207.247C67.2306 206.497 66.4806 204.997 65.4806 204.247C64.4806 203.497 62.9807 201.247 62.2307 198.497C62.1473 198.191 62.0449 197.917 61.9255 197.67M51.2806 186.25C51.5824 186.608 51.8338 187.004 51.9771 187.5C52.1042 187.941 52.7031 189.5 53.2031 191C53.7031 192.5 54.9531 194.5 56.9806 194.997C58.9352 195.475 60.9706 195.696 61.9255 197.67M51.2806 186.25C61.2539 191 75.2539 192.17 88.2031 192.17M61.9255 197.67C65.1678 198.753 74.9625 200.92 88.2031 200.92M87.7812 180.67C87.7812 180.67 97.6917 180.354 104.029 179.918C108.624 179.602 113.257 177.75 116.007 176.75C117.287 176.284 119.007 175.499 120.757 175C122.507 174.5 124.361 174.496 125.504 175.496C128.083 177.893 127.596 181.664 127.03 183.25C126.553 184.683 125.467 185.346 124.704 186.25M87.5037 208.247C90.9204 208.163 98.8537 207.847 103.254 207.247C108.754 206.497 109.504 204.997 110.504 204.247C111.504 203.497 113.004 201.247 113.754 198.497C113.837 198.191 113.94 197.917 114.059 197.67M124.704 186.25C124.402 186.608 124.151 187.004 124.007 187.5C123.88 187.941 123.281 189.5 122.781 191C122.281 192.5 121.031 194.5 119.004 194.997C117.049 195.475 115.014 195.696 114.059 197.67M124.704 186.25C114.73 191 100.73 192.17 87.7812 192.17M114.059 197.67C110.817 198.753 101.022 200.92 87.7812 200.92" stroke="#7D93A4" stroke-width="2.5" stroke-linejoin="round"/>
<path d="M24.7969 190.452C28.3547 184.87 32.2341 181.606 35.3992 179.85C35.9268 179.557 36.9464 178.515 36.804 176.685C36.6259 174.398 35.3898 169.295 34.8602 167.359C34.3306 165.423 32.9203 162.255 29.2259 162.428C26.2704 162.566 24.7131 165.297 24.3038 166.645C22.0509 165.517 20.5595 164.42 17.6035 163.925C11.269 162.863 4.77848 169.618 5.31262 176.48C5.84677 183.341 12.4089 188.806 15.8698 191.017C22.3706 195.169 23.7895 192.033 24.7969 190.452Z" stroke="#7D93A4" stroke-width="2.5" stroke-linejoin="round"/>
<path d="M152.633 190.452C149.075 184.87 145.196 181.606 142.03 179.85C141.503 179.557 140.483 178.515 140.626 176.685C140.804 174.398 142.04 169.295 142.569 167.359C143.099 165.423 144.509 162.255 148.204 162.428C151.159 162.566 152.717 165.297 153.126 166.645C155.379 165.517 156.87 164.42 159.826 163.925C166.161 162.863 172.651 169.618 172.117 176.48C171.583 183.341 165.021 188.806 161.56 191.017C155.059 195.169 153.64 192.033 152.633 190.452Z" stroke="#7D93A4" stroke-width="2.5" stroke-linejoin="round"/>
<path d="M89.8779 50.0528C89.6091 48.8585 87.9296 48.8668 87.6717 50.0624L87.6622 50.1134L87.6404 50.2112C87.483 50.9228 87.1214 51.5711 86.6012 52.0744C86.0809 52.5777 85.4254 52.9134 84.7174 53.0391C83.49 53.2567 83.49 55.0419 84.7174 55.2595C85.4281 55.3855 86.0859 55.7231 86.6071 56.2294C87.1284 56.7356 87.4894 57.3876 87.6445 58.1026L87.6717 58.2362C87.931 59.4318 89.6091 59.4401 89.8779 58.2458L89.9132 58.0902C90.073 57.3771 90.4373 56.7279 90.9601 56.2244C91.483 55.7209 92.1409 55.3857 92.8512 55.2609C94.0799 55.0446 94.0799 53.254 92.8512 53.0377C92.1449 52.9136 91.4903 52.5814 90.9688 52.0824C90.4473 51.5835 90.0821 50.9399 89.9186 50.2318L89.8915 50.1134L89.8779 50.0528Z" fill="#8DD0FF"/>
<path d="M86.4036 4H88.7848H91.166C92.5877 4 93.7232 5.18402 93.6638 6.60448L92.3251 38.607C92.2942 39.346 91.9417 40.0414 91.3056 40.4188C90.5921 40.8419 89.6077 41.3171 88.7848 41.3171C87.9619 41.3171 86.9775 40.8419 86.264 40.4188C85.6279 40.0414 85.2754 39.346 85.2445 38.607L83.9058 6.60448C83.8464 5.18402 84.9819 4 86.4036 4Z" fill="#8DD0FF"/>
</svg>
